<svg xmlns="http://www.w3.org/2000/svg" version="1.1" viewBox="-5.0 -10.0 110.0 135.0">
  <path fill="#7AE2CF" d="m35.793 41.668-18.832-18.836-6.293-6.293c-1.5 2.5039-2.3359 5.3789-2.3359 8.4609v44.125l8.3359-8.375z"/>
  <path fill="#7AE2CF" d="m59.75 65.625c-0.082031-0.042969-0.125-0.125-0.20703-0.16797-0.082031-0.082031-0.16797-0.20703-0.25-0.29297l-17.625-17.625-32.543 32.543c2.168 6.7109 8.457 11.586 15.875 11.586h50c3.082 0 5.957-0.83594 8.457-2.3359z"/>
  <path fill="#7AE2CF" d="m75 8.332h-50c-3.082 0-5.957 0.83594-8.457 2.3359l6.293 6.293 21.168 21.207c0.082032 0.082031 0.20703 0.16406 0.33203 0.29297 0.085937 0.082031 0.20703 0.16797 0.29297 0.25 0.125 0.125 0.20703 0.20703 0.29297 0.33203 0.082031 0.085937 0.16406 0.20703 0.25 0.29297l17.332 17.293 20.832-20.836 8.332-8.3359v-2.457c0-9.207-7.4609-16.668-16.668-16.668z"/>
  <path fill="#7AE2CF" d="m68.375 62.5 20.961 20.961c1.4961-2.5039 2.332-5.3789 2.332-8.4609v-35.793l-8.3359 8.375z"/>
</svg>
